
<global>
amp_veltrack=0
ampeg_release=0.85
loop_mode=loop_continuous
master-volume=12.0
</global>

<group>
group_label=PP
xf_cccurve=gain
xfin_hicc1=63
xfout_hicc1=127
xfout_locc1=64

<region>
hikey=B4
hivel=127
lokey=A#4
loop_end=271061
loop_mode=loop_continuous
loop_start=95004
loop_xfade=34763
lovel=1
offset=242
pitch_keycenter=A#4
sample=Sopranos_Mmm_nonvib_PP_A#4.opus
tune=+8
</region>

<region>
hikey=F6
hivel=127
lokey=A#5
loop_end=271061
loop_mode=loop_continuous
loop_start=95004
loop_xfade=34763
lovel=1
offset=13448
pitch_keycenter=A#5
sample=Sopranos_Mmm_nonvib_PP_A#5.opus
tune=-14
</region>

<region>
hikey=C#4
hivel=127
lokey=F3
loop_end=271060
loop_mode=loop_continuous
loop_start=95004
loop_xfade=34763
lovel=1
offset=12758
sample=Sopranos_Mmm_nonvib_PP_C4.opus
tune=-17
</region>

<region>
hikey=C#5
hivel=127
lokey=C5
loop_end=271061
loop_mode=loop_continuous
loop_start=95004
loop_xfade=34763
lovel=1
pitch_keycenter=C5
sample=Sopranos_Mmm_nonvib_PP_C5.opus
tune=+10
</region>

<region>
hikey=D#4
hivel=127
lokey=D4
loop_end=271061
loop_mode=loop_continuous
loop_start=95004
loop_xfade=34763
lovel=1
pitch_keycenter=D4
sample=Sopranos_Mmm_nonvib_PP_D4.opus
tune=-5
</region>

<region>
hikey=D#5
hivel=127
lokey=D5
loop_end=271061
loop_mode=loop_continuous
loop_start=95004
loop_xfade=34763
lovel=1
offset=661
pitch_keycenter=D5
sample=Sopranos_Mmm_nonvib_PP_D5.opus
tune=-4
</region>

<region>
hikey=F4
hivel=127
lokey=E4
loop_end=271061
loop_mode=loop_continuous
loop_start=95004
loop_xfade=34763
lovel=1
offset=467
pitch_keycenter=E4
sample=Sopranos_Mmm_nonvib_PP_E4.opus
tune=+6
</region>

<region>
hikey=F5
hivel=127
lokey=E5
loop_end=271061
loop_mode=loop_continuous
loop_start=95004
loop_xfade=34763
lovel=1
pitch_keycenter=E5
sample=Sopranos_Mmm_nonvib_PP_E5.opus
tune=-1
</region>

<region>
hikey=G4
hivel=127
lokey=F#4
loop_end=271061
loop_mode=loop_continuous
loop_start=95004
loop_xfade=34763
lovel=1
pitch_keycenter=F#4
sample=Sopranos_Mmm_nonvib_PP_F#4.opus
tune=+6
</region>

<region>
hikey=G5
hivel=127
lokey=F#5
loop_end=271061
loop_mode=loop_continuous
loop_start=95004
loop_xfade=34763
lovel=1
offset=2422
pitch_keycenter=F#5
sample=Sopranos_Mmm_nonvib_PP_F#5.opus
tune=+7
</region>

<region>
hikey=A4
hivel=127
lokey=G#4
loop_end=271061
loop_mode=loop_continuous
loop_start=95004
loop_xfade=34763
lovel=1
pitch_keycenter=G#4
sample=Sopranos_Mmm_nonvib_PP_G#4.opus
tune=+5
</region>

<region>
hikey=A5
hivel=127
lokey=G#5
loop_end=271061
loop_mode=loop_continuous
loop_start=95004
loop_xfade=34763
lovel=1
offset=5562
pitch_keycenter=G#5
sample=Sopranos_Mmm_nonvib_PP_G#5.opus
tune=-6
</region>
</group>

<group>
group_label=FF
xf_cccurve=gain
xfin_hicc1=127
xfin_locc1=64
xfout_hicc1=127
xfout_locc1=127

<region>
hikey=B4
hivel=127
lokey=A#4
loop_end=271061
loop_mode=loop_continuous
loop_start=95004
loop_xfade=34763
lovel=1
offset=5928
pitch_keycenter=A#4
sample=Sopranos_Mmm_nonvib_FF_A#4.opus
tune=+4
</region>

<region>
hikey=F6
hivel=127
lokey=A#5
loop_end=266144
loop_mode=loop_continuous
loop_start=93281
loop_xfade=34132
lovel=1
offset=3823
pitch_keycenter=A#5
sample=Sopranos_Mmm_nonvib_FF_A#5.opus
tune=+6
</region>

<region>
hikey=C#4
hivel=127
lokey=F3
loop_end=271041
loop_mode=loop_continuous
loop_start=94997
loop_xfade=34760
lovel=1
offset=10315
sample=Sopranos_Mmm_nonvib_FF_C4.opus
tune=-5
</region>

<region>
hikey=C#5
hivel=127
lokey=C5
loop_end=271061
loop_mode=loop_continuous
loop_start=95004
loop_xfade=34763
lovel=1
pitch_keycenter=C5
sample=Sopranos_Mmm_nonvib_FF_C5.opus
tune=+16
</region>

<region>
hikey=D#4
hivel=127
lokey=D4
loop_end=270959
loop_mode=loop_continuous
loop_start=94968
loop_xfade=34750
lovel=1
offset=7920
pitch_keycenter=D4
sample=Sopranos_Mmm_nonvib_FF_D4.opus
tune=-8
</region>

<region>
hikey=D#5
hivel=127
lokey=D5
loop_end=271061
loop_mode=loop_continuous
loop_start=95004
loop_xfade=34763
lovel=1
offset=2571
pitch_keycenter=D5
sample=Sopranos_Mmm_nonvib_FF_D5.opus
tune=+3
</region>

<region>
hikey=F4
hivel=127
lokey=E4
loop_end=271061
loop_mode=loop_continuous
loop_start=95004
loop_xfade=34763
lovel=1
offset=1686
pitch_keycenter=E4
sample=Sopranos_Mmm_nonvib_FF_E4.opus
tune=+18
</region>

<region>
hikey=F5
hivel=127
lokey=E5
loop_end=270129
loop_mode=loop_continuous
loop_start=94678
loop_xfade=34643
lovel=1
offset=3497
pitch_keycenter=E5
sample=Sopranos_Mmm_nonvib_FF_E5.opus
tune=+6
</region>

<region>
hikey=G4
hivel=127
lokey=F#4
loop_end=271061
loop_mode=loop_continuous
loop_start=95004
loop_xfade=34763
lovel=1
pitch_keycenter=F#4
sample=Sopranos_Mmm_nonvib_FF_F#4.opus
tune=+17
</region>

<region>
hikey=G5
hivel=127
lokey=F#5
loop_end=268247
loop_mode=loop_continuous
loop_start=94018
loop_xfade=34402
lovel=1
offset=310
pitch_keycenter=F#5
sample=Sopranos_Mmm_nonvib_FF_F#5.opus
tune=+6
</region>

<region>
hikey=A4
hivel=127
lokey=G#4
loop_end=271061
loop_mode=loop_continuous
loop_start=95004
loop_xfade=34763
lovel=1
offset=1442
pitch_keycenter=G#4
sample=Sopranos_Mmm_nonvib_FF_G#4.opus
tune=+17
</region>

<region>
hikey=A5
hivel=127
lokey=G#5
loop_end=269717
loop_mode=loop_continuous
loop_start=94533
loop_xfade=34591
lovel=1
offset=5128
pitch_keycenter=G#5
sample=Sopranos_Mmm_nonvib_FF_G#5.opus
tune=-6
</region>
</group>